<svg xmlns="http://www.w3.org/2000/svg" version="1.1" viewBox="-5.0 -10.0 110.0 135.0">
 <path d="m80.895 48.18-60-29.969c-0.73438-0.36719-1.6172-0.25-2.2266 0.29687-0.61328 0.54688-0.82812 1.4102-0.54688 2.1797l10.766 29.457-10.699 29.168c-0.28125 0.76953-0.066406 1.6328 0.54688 2.1797 0.60938 0.54687 1.4922 0.66406 2.2266 0.29687l59.934-30.031v-0.003906c0.67969-0.33984 1.1055-1.0312 1.1055-1.7891 0-0.75781-0.42969-1.4492-1.1055-1.7891zm-57.215 27.773 8.7852-23.953h17.535c1.1055 0 2-0.89453 2-2s-0.89453-2-2-2h-17.637l-8.7578-23.965 51.926 25.934z"/>
<text x="0.0" y="117.5" font-size="5.0" font-weight="bold" font-family="Arbeit Regular, Helvetica, Arial-Unicode, Arial, Sans-serif" fill="#000000">Created by MBR</text><text x="0.0" y="122.5" font-size="5.0" font-weight="bold" font-family="Arbeit Regular, Helvetica, Arial-Unicode, Arial, Sans-serif" fill="#000000">from Noun Project</text></svg>